<?xml version="1.0" encoding="UTF-8" standalone="no"?>
<!-- Created with Inkscape (http://www.inkscape.org/) -->

<svg
   xmlns:dc="http://purl.org/dc/elements/1.1/"
   xmlns:cc="http://creativecommons.org/ns#"
   xmlns:rdf="http://www.w3.org/1999/02/22-rdf-syntax-ns#"
   xmlns:svg="http://www.w3.org/2000/svg"
   xmlns="http://www.w3.org/2000/svg"
   xmlns:sodipodi="http://sodipodi.sourceforge.net/DTD/sodipodi-0.dtd"
   xmlns:inkscape="http://www.inkscape.org/namespaces/inkscape"
   width="1080"
   height="1080"
   viewBox="0 0 285.74999 285.75001"
   version="1.1"
   id="svg8"
   inkscape:version="0.92.5 (2060ec1f9f, 2020-04-08)"
   sodipodi:docname="instragram_facebook_ad_03_pt-br.svg"
   inkscape:export-filename="/home/henriquegomide/github_repos/calma-webapp/artwork/instragram_facebook_ad_03_pt-br.png"
   inkscape:export-xdpi="96"
   inkscape:export-ydpi="96">
  <defs
     id="defs2" />
  <sodipodi:namedview
     id="base"
     pagecolor="#ffffff"
     bordercolor="#666666"
     borderopacity="1.0"
     inkscape:pageopacity="0.0"
     inkscape:pageshadow="2"
     inkscape:zoom="0.49497475"
     inkscape:cx="157.83246"
     inkscape:cy="368.82437"
     inkscape:document-units="mm"
     inkscape:current-layer="layer1"
     showgrid="false"
     units="px"
     inkscape:snap-page="true"
     inkscape:window-width="1920"
     inkscape:window-height="1016"
     inkscape:window-x="0"
     inkscape:window-y="27"
     inkscape:window-maximized="1" />
  <metadata
     id="metadata5">
    <rdf:RDF>
      <cc:Work
         rdf:about="">
        <dc:format>image/svg+xml</dc:format>
        <dc:type
           rdf:resource="http://purl.org/dc/dcmitype/StillImage" />
        <dc:title></dc:title>
      </cc:Work>
    </rdf:RDF>
  </metadata>
  <g
     inkscape:label="Layer 1"
     inkscape:groupmode="layer"
     id="layer1"
     transform="translate(0,-11.249983)">
    <flowRoot
       xml:space="preserve"
       id="flowRoot170"
       style="font-style:normal;font-variant:normal;font-weight:normal;font-stretch:normal;font-size:144px;line-height:1.25;font-family:Lato;-inkscape-font-specification:Lato;letter-spacing:0px;word-spacing:0px;fill:#000000;fill-opacity:1;stroke:none"
       transform="matrix(0.26458333,0,0,0.26458333,0,11.249983)"><flowRegion
         id="flowRegion172"
         style="font-size:144px"><rect
           id="rect174"
           width="917.21851"
           height="155.56349"
           x="78.791901"
           y="686.04053"
           style="font-size:144px" /></flowRegion><flowPara
         id="flowPara176">Ca</flowPara></flowRoot>    <g
       id="g204"
       transform="matrix(0.9457605,0,0,0.9457605,-9.6754113,55.77868)">
      <text
         id="text180"
         y="191.63274"
         x="51.465687"
         style="font-style:normal;font-variant:normal;font-weight:normal;font-stretch:normal;font-size:20.55815697px;line-height:1.25;font-family:Lato;-inkscape-font-specification:Lato;letter-spacing:0px;word-spacing:0px;fill:#000000;fill-opacity:1;stroke:none;stroke-width:0.51395392"
         xml:space="preserve"><tspan
           style="font-style:normal;font-variant:normal;font-weight:bold;font-stretch:normal;font-family:'Ubuntu Condensed';-inkscape-font-specification:'Ubuntu Condensed,  Bold';stroke-width:0.51395392"
           y="191.63274"
           x="51.465687"
           id="tspan178"
           sodipodi:role="line">www.calmanessahora.com.br</tspan></text>
      <text
         id="text180-5"
         y="203.96188"
         x="39.715492"
         style="font-style:normal;font-variant:normal;font-weight:normal;font-stretch:normal;font-size:8.57590008px;line-height:1.25;font-family:Lato;-inkscape-font-specification:Lato;letter-spacing:0px;word-spacing:0px;fill:#364e59;fill-opacity:1;stroke:none;stroke-width:0.2143975"
         xml:space="preserve"><tspan
           style="font-style:normal;font-variant:normal;font-weight:bold;font-stretch:normal;font-family:Lato;-inkscape-font-specification:'Lato Bold';fill:#364e59;stroke-width:0.2143975"
           y="203.96188"
           x="39.715492"
           id="tspan178-4"
           sodipodi:role="line">Acolhimento via chat nestes tempos de COVID-19</tspan></text>
    </g>
    <rect
       style="fill:#aea1c8;stroke-width:0.09988178;fill-opacity:1"
       id="rect225"
       width="285.75"
       height="38.792973"
       x="-2.0428104e-14"
       y="11.249983" />
    <rect
       style="fill:#aea1c8;stroke-width:0.09988178;fill-opacity:1"
       id="rect225-9"
       width="285.75"
       height="38.792973"
       x="3.3378601e-06"
       y="258.207" />
    <g
       id="g1634"
       transform="matrix(0.92751174,0,0,0.92751174,8.2391937,11.3577)">
      <circle
         r="63.606922"
         cx="139.73396"
         cy="122.28642"
         id="circle2"
         style="fill:#f0e5af;fill-opacity:1;stroke-width:2.65028834" />
      <path
         stroke-miterlimit="10"
         d="M 193.18555,180.0709"
         id="path4"
         inkscape:connector-curvature="0"
         style="fill:none;stroke:#000000;stroke-width:5.30057669;stroke-linecap:round;stroke-linejoin:round;stroke-miterlimit:10" />
      <path
         d="m 169.91573,214.0407 c 2.24878,-1.76667 5.68305,-4.54815 5.88529,-4.64671 2.38121,-1.16326 8.85669,-0.0701 24.95876,-9.28791 4.06373,-2.32782 13.41265,-8.88464 15.5246,-10.48673 7.53506,-5.7084 1.64927,-10.20726 -4.30304,-7.29997 3.23604,-2.11756 6.20593,-4.44367 7.53507,-5.7084 5.70369,-5.43023 0.48381,-12.21894 -8.6818,-6.45134 l -1.86213,1.09374 c 8.57712,-6.21726 1.52317,-12.20803 -3.08388,-8.95526 -7.40114,5.22819 -21.2359,11.24861 -21.2359,11.24861 -1.16325,-2.3813 1.03705,-7.9697 1.05848,-10.28739 0.0501,-5.92606 -5.20014,-5.67504 -7.08921,-2.4364 -4.8177,8.25247 -9.6354,16.50495 -10.85345,20.0494 -0.86145,2.50612 -0.70518,12.14282 -0.70518,12.14282 l -6.73603,3.29013"
         id="path6"
         inkscape:connector-curvature="0"
         style="fill:#f0e5af;fill-opacity:1;stroke-width:2.65028834" />
      <path
         d="m 119.14068,196.30529 -6.73592,-3.29013 c 0,0 0.15626,-9.6367 -0.70519,-12.14282 -1.21805,-3.54445 -6.03574,-11.79693 -10.85344,-20.0494 -1.889082,-3.23864 -7.144112,-3.48966 -7.089222,2.4364 0.02,2.31769 2.22173,7.90609 1.05848,10.28739 0,0 -13.83475,-6.02042 -21.23594,-11.24861 -4.60699,-3.25277 -11.661,2.738 -3.08387,8.95526 l -1.86209,-1.09374 c -9.165499,-5.7676 -14.385504,1.02111 -8.68182,6.45134 1.32912,1.26473 4.29903,3.59084 7.53503,5.7084 -5.95228,-2.90729 -11.838039,1.59157 -4.303,7.29997 2.11201,1.60209 11.4609,8.15891 15.52459,10.48673 16.10209,9.21318 22.577582,8.12465 24.958782,9.28791 0.20234,0.10017 3.63651,2.88004 5.88529,4.64671"
         id="path8"
         inkscape:connector-curvature="0"
         style="fill:#f0e5af;fill-opacity:1;stroke-width:2.65028834" />
      <path
         stroke-miterlimit="10"
         d="m 192.74611,152.39738 c 5.0562,-8.88243 7.94455,-19.15941 7.94455,-30.11092 0,-33.666891 -27.29217,-60.956661 -60.95666,-60.956661 -33.6669,0 -60.956642,27.28977 -60.956642,60.956661 0,10.28359 2.54666,19.97278 7.04367,28.47096 0.39146,0.73924 0.79774,1.47067 1.21834,2.19179"
         id="path14"
         inkscape:connector-curvature="0"
         style="opacity:1;fill:none;stroke:#606060;stroke-width:2.37465835;stroke-linecap:round;stroke-linejoin:round;stroke-miterlimit:9.45454502;stroke-dasharray:none;stroke-opacity:1" />
      <path
         stroke-miterlimit="10"
         d="m 122.78651,180.87315 c 5.36281,1.54329 11.02944,2.36988 16.88889,2.36988 5.6528,0 11.1259,-0.76929 16.32053,-2.20951"
         id="path16"
         inkscape:connector-curvature="0"
         style="opacity:1;fill:none;stroke:#606060;stroke-width:2.54427695;stroke-linecap:round;stroke-linejoin:round;stroke-miterlimit:9.45454502;stroke-dasharray:none;stroke-opacity:1" />
      <path
         d="m 165.74582,146.74007 c -15.10559,12.45293 -36.91806,12.45293 -52.02365,0"
         id="path18"
         inkscape:connector-curvature="0"
         style="opacity:1;fill:none;stroke:#606060;stroke-width:3.39236903;stroke-linecap:round;stroke-linejoin:round;stroke-miterlimit:9.45454502;stroke-dasharray:none;stroke-opacity:1" />
      <path
         stroke-miterlimit="10"
         d="m 128.32211,115.4052 c -2.80872,-6.32203 -10.21076,-9.17002 -16.53249,-6.3612 -2.83506,1.25942 -5.10157,3.52623 -6.36119,6.3612"
         id="path20"
         inkscape:connector-curvature="0"
         style="opacity:1;fill:none;stroke:#606060;stroke-width:3.39236903;stroke-linecap:round;stroke-miterlimit:9.45454502;stroke-dasharray:none;stroke-opacity:1" />
      <path
         stroke-miterlimit="10"
         d="m 174.03956,115.4052 c -2.80872,-6.32203 -10.21076,-9.17002 -16.53249,-6.3612 -2.83496,1.25942 -5.10147,3.52623 -6.36119,6.3612"
         id="path22"
         inkscape:connector-curvature="0"
         style="opacity:1;fill:none;stroke:#606060;stroke-width:3.39236903;stroke-linecap:round;stroke-miterlimit:9.45454502;stroke-dasharray:none;stroke-opacity:1" />
      <path
         stroke-miterlimit="10"
         d="m 86.282448,180.0709 c -4.76283,-2.32641 -11.99388,-6.066 -15.78697,-8.81752 -8.57713,-6.21726 -1.52312,-12.20803 3.08387,-8.95526 7.40119,5.22819 21.23594,11.24861 21.23594,11.24861 1.16325,-2.3813 -1.03704,-7.9697 -1.05848,-10.28739 -0.0501,-5.92606 5.20014,-5.67504 7.089222,-2.4364 4.81769,8.25247 9.63539,16.50495 10.85344,20.0494 0.86145,2.50612 0.70519,12.14282 0.70519,12.14282 l 4.41772,2.15792"
         id="path24"
         inkscape:connector-curvature="0"
         style="opacity:1;fill:none;stroke:#606060;stroke-width:2.54427695;stroke-linecap:round;stroke-linejoin:round;stroke-miterlimit:9.45454502;stroke-dasharray:none;stroke-opacity:1" />
      <path
         stroke-miterlimit="10"
         d="m 68.633388,170.15964 c -9.165499,-5.7676 -14.385504,1.02111 -8.68182,6.45134 2.89862,2.75814 11.11637,8.44299 21.23491,13.13769"
         id="path26"
         inkscape:connector-curvature="0"
         style="opacity:1;fill:none;stroke:#606060;stroke-width:2.54427695;stroke-linecap:round;stroke-linejoin:round;stroke-miterlimit:9.45454502;stroke-dasharray:none;stroke-opacity:1" />
      <path
         stroke-miterlimit="10"
         d="m 67.486598,182.31938 c -5.95228,-2.90729 -11.838039,1.59157 -4.303,7.29997 2.11201,1.60209 11.4609,8.15891 15.52459,10.48673 16.10209,9.21318 22.577582,8.12465 24.958782,9.28791 0.20234,0.10017 1.60029,1.23558 3.84907,3.00225"
         id="path28"
         inkscape:connector-curvature="0"
         style="opacity:1;fill:none;stroke:#606060;stroke-width:2.54427695;stroke-linecap:round;stroke-linejoin:round;stroke-miterlimit:9.45454502;stroke-dasharray:none;stroke-opacity:1" />
      <path
         stroke-miterlimit="10"
         d="m 162.64551,195.17308 4.41773,-2.15792 c 0,0 -0.15627,-9.6367 0.70518,-12.14282 1.21805,-3.54445 6.03575,-11.79693 10.85345,-20.0494 1.88917,-3.23864 7.14411,-3.48966 7.08931,2.4364 -0.02,2.31769 -2.22173,7.90609 -1.05858,10.28739 0,0 13.83476,-6.02042 21.236,-11.24861 4.60694,-3.25277 11.661,2.738 3.08388,8.95526 -3.79307,2.75152 -11.02413,6.49111 -15.78703,8.81752"
         id="path30"
         inkscape:connector-curvature="0"
         style="opacity:1;fill:none;stroke:#606060;stroke-width:2.54427695;stroke-linecap:round;stroke-linejoin:round;stroke-miterlimit:9.45454502;stroke-dasharray:none;stroke-opacity:1" />
      <path
         stroke-miterlimit="10"
         d="m 198.28151,189.74867 c 10.11851,-4.6947 18.33633,-10.37955 21.2349,-13.13769 5.70369,-5.43023 0.48381,-12.21894 -8.6818,-6.45134"
         id="path32"
         inkscape:connector-curvature="0"
         style="opacity:1;fill:none;stroke:#606060;stroke-width:2.54427695;stroke-linecap:round;stroke-linejoin:round;stroke-miterlimit:9.45454502;stroke-dasharray:none;stroke-opacity:1" />
      <path
         stroke-miterlimit="10"
         d="m 171.95195,212.39624 c 2.24878,-1.76667 3.64683,-2.90369 3.84907,-3.00225 2.38121,-1.16326 8.85669,-0.0701 24.95876,-9.28791 4.06373,-2.32782 13.41265,-8.88464 15.5246,-10.48673 7.53506,-5.7084 1.64927,-10.20726 -4.30304,-7.29997"
         id="path34"
         inkscape:connector-curvature="0"
         style="opacity:1;fill:none;stroke:#606060;stroke-width:2.54427695;stroke-linecap:round;stroke-linejoin:round;stroke-miterlimit:9.45454502;stroke-dasharray:none;stroke-opacity:1" />
      <path
         stroke-miterlimit="10"
         d="M 126.91505,204.32186"
         id="path36"
         inkscape:connector-curvature="0"
         style="fill:none;stroke:#000000;stroke-width:5.30057669;stroke-linecap:round;stroke-linejoin:round;stroke-miterlimit:10" />
    </g>
  </g>
</svg>
