<svg id="Layer_1" data-name="Layer 1" xmlns="http://www.w3.org/2000/svg" viewBox="0 0 1200 1200"><defs><style>.cls-1{fill:#eee4af;}.cls-2{fill:#6bacb4;}.cls-3{fill:#55a2b4;}.cls-4{fill:#938291;}.cls-5{fill:#9d8c95;}.cls-6{fill:#65a9b4;}.cls-7{fill:#f3d3ba;}.cls-8{fill:#f3b584;}.cls-9{fill:#e2cdcf;}.cls-10{fill:#f6d4e2;}.cls-11{fill:#bfb19f;}.cls-12{fill:#c2d7dc;}.cls-13{fill:#c4b0d5;}.cls-14{fill:#bbe7d6;}.cls-15{fill:#917d85;}</style></defs><title>arte 2</title><path class="cls-1" d="M62.7,597.67c.73-82.42,18.21-163.26,55.11-239.76a552.49,552.49,0,0,1,76.65-118.15A538.43,538.43,0,0,1,353,111.74a524.24,524.24,0,0,1,151.57-53A488.64,488.64,0,0,1,569,51.07c12-.63,24-1.13,36-1a528.92,528.92,0,0,1,333.15,122,546.36,546.36,0,0,1,74.52,75.17A554.58,554.58,0,0,1,1078.29,348a542.06,542.06,0,0,1,48.33,139.52,615.78,615.78,0,0,1,10.26,80.74,512.67,512.67,0,0,1-.67,76.81c-5.88,69.06-23.13,135.15-53.57,197.7a557.32,557.32,0,0,1-76.35,117.52,538.3,538.3,0,0,1-158.53,128,524.58,524.58,0,0,1-151.56,53,488.84,488.84,0,0,1-64.41,7.66c-12,.62-24,1.12-36,1a529.08,529.08,0,0,1-333.15-122,546.36,546.36,0,0,1-74.52-75.17,555.11,555.11,0,0,1-65.67-100.75A553.63,553.63,0,0,1,63.89,631.78C63.4,621.17,63.25,610.57,62.7,597.67Z"/><path class="cls-2" d="M246.2,904.2l-.06-8.3c2.06-5.23-.06-10.48,0-15.72q.25-93.61.11-187.25a87.26,87.26,0,0,0-.22-9.7c2-1.87,4.39-1.09,6.62-1.11,22.44-.18,44.89-.17,67.33-.43,99.72-1.16,199.44-.87,299.16-1,4.08,0,8.28-.86,12.86,1.14-3.47,5.17-8.21,8.71-12.2,12.92-1,1-2.19,1.72-3.17,2.7-7.22,7.17-16.13,13.36-21.14,21.85-5.12,8.68-1.68,19.85-1.74,29.9-.3,49.75-.19,99.5-.19,149.26,0,2.21-.84,4.72,1.81,6.42a21.32,21.32,0,0,1-8.81,1.85q-59.7,0-119.4,0c1.3-3.57,4.35-1.74,6.45-1.75,35.63-.15,71.26-.11,106.75-.11.32-.11.08-.06-.6,0-108.26,0-216.53,1.21-324.79.7C252,905.54,248.85,906.25,246.2,904.2Z"/><path class="cls-3" d="M989.57,827.45c1.32,94.42-77.21,174.71-174,174.22A174,174,0,0,1,642,827.47c0-96.39,78.06-174.9,174.23-174.36C916.39,653.68,990.92,735.84,989.57,827.45Z"/><path class="cls-4" d="M358,580.59c-96,0-174.41-78-174.12-173.75.3-96.74,76.63-174.35,174.17-174.34s173.86,77.72,174.12,174.4C532.42,502.67,454,580.59,358,580.59Z"/><path class="cls-5" d="M746.49,448.59c-52.29,0-104.57-.11-156.86.14-6.64,0-8.7-1.8-8.66-8.54.28-41.64,0-83.29.29-124.93a18.84,18.84,0,0,0-6.38-15.08C562,287.86,549.58,275.09,537,262.47c-1.41-1.42-3.73-2.7-3-5.09,1-3,3.89-1.89,6-1.89,28.92,0,57.86-.58,86.75.47,38.85,1.42,77.7.07,116.52,1.27,47.17,1.47,94.34.85,141.51,1.35,6.45.07,12.92,1.09,19.34.84,5.69-.23,7.48,1.44,7.45,7.33-.27,48.59-.21,97.17-.25,145.75,0,9.72-.41,19.46.1,29.15.28,5.49-1.09,7.1-6.75,7.07-43.26-.23-86.53-.12-129.79-.12Z"/><path class="cls-6" d="M246.2,904.2H586.06c-3.39,2.1-5.88,1.34-8.2,1.34-34.48.07-69,0-103.44.09-2.45,0-5.13-.86-7.31,1.14q-62.43.09-124.86.16c-29.83,0-59.66,0-89.49-.19C250.56,906.72,246.85,908.89,246.2,904.2Z"/><path class="cls-6" d="M246,683.23c2.48,1.93,1.56,4.68,1.56,7.1q.08,99.2,0,198.39c0,2.43.92,5.15-1.4,7.18-2.24-29.56-.8-59.16-1.08-88.74-.36-38.85-.09-77.71,0-116.56C245,688.14,244.2,685.49,246,683.23Z"/><path class="cls-7" d="M719.92,953.36c-23.71-17.49-40.6-40.27-51.36-67.52C630.84,790.3,692,685,793.88,669.82c87.94-13.12,170.86,51.1,180.41,139.73,7.38,68.47-29.74,135-90.1,161.51a2.35,2.35,0,0,1-1.94.09c-.22-3.74,3.09-4.19,5.31-5.38a176.39,176.39,0,0,0,27.49-18.59c6.36-5.16,6.88-7.62,3-14.82-2.52-4.66-4.84-9.44-7.51-14-4.86-8.34-11.29-15.28-20.21-19.25-13.7-6.11-26.87-13.34-40.69-19.19-.82-.43-1.6-.92-2.4-1.39-14.35-8.35-17.36-16-12.7-31.93a8.43,8.43,0,0,1,2.37-4.17c5.86-5,9-11.57,11.38-18.67A38.33,38.33,0,0,1,860,806.17c6.17-5.22,6.2-8.77,1.5-15.29-2.1-2.91-1.94-6.12-1.85-9.31a109.53,109.53,0,0,0-2.94-27.49c-2-8.6-7-14.79-14.62-19.26-17.27-10.1-34.81-13.43-53.24-3.32-9.51,5.22-16.36,12.35-18.88,23.49-2.09,9.2-5.94,18-5.43,27.74.12,2.36-.94,4.39-2.32,6.38-4,5.79-4.29,9.86.37,15,5.42,6,8.93,12.72,11.86,20.1,2.58,6.47,7.22,11.81,12,16.89,12.06,12.9,10.79,27.1-3.41,37.35-11.88,3.07-21.59,10.32-31.69,16.73-7,4.43-14.36,8.43-20.65,13.92a47.5,47.5,0,0,0-14,21.93c-2.09,6.57-3.65,13,2.52,18.56A3,3,0,0,1,719.92,953.36Z"/><path class="cls-8" d="M719.92,953.36c-2-4.9-8.64-7.23-7.1-14.23,2.22-10.08,5.66-19.44,12.56-27.31,7.63-8.69,18.24-13.24,27.42-19.77,5.8-4.14,12.32-7.24,18.41-11a19.16,19.16,0,0,1,11.07-3.26,4.16,4.16,0,0,1,2.87,2.77c8.8,22.86,38.06,22.34,53,9.29,4.08-3.56,7-8.38,12.1-10.81,2.4-.08,4.47.93,6.56,1.93,9.76,4.68,19.32,9.9,29.37,13.85,19.48,7.67,27.58,24.73,35.87,41.76,1.75,3.59.16,6.63-2.76,9.15a163.82,163.82,0,0,1-29.93,20.88c-2.42,1.29-4.73,2.8-7.09,4.2A142.69,142.69,0,0,1,828,985.4c-22.78,1.43-44.91-2.31-66.61-9C746.33,971,732.11,964,719.92,953.36Z"/><path class="cls-9" d="M761.41,976.41c10.41.54,20.29,4,30.41,6,30.33,6,59,.7,87.18-10.44,1.06-.42,2.17-.75,3.25-1.12l1.94.24a125.15,125.15,0,0,1-47.35,14.53c-24.46,2.6-49,1.38-72.4-7.63A30.85,30.85,0,0,1,761.41,976.41Z"/><path class="cls-7" d="M253.29,526.15c-25.85-22-42.23-49.93-50-82.76-6.93-29.16-5.87-58,4.21-86.56,22.07-62.47,66.44-99.26,131.28-107.45,60.48-7.64,110.81,14.67,147.77,64,22.61,30.17,32.45,64.73,30.22,102.23-2.53,42.62-19.29,79-51.11,107.94-5.36-5.94-7.47-13.18-8.47-20.88,4.75-10.36.62-19.28-5.75-26.85-6.67-7.91-9.61-15.84-6.73-26.06,2.71-9.65-2.95-17-8.39-23.93-13.57-17.18-15.86-43.72-5-62.89a39.11,39.11,0,0,0,2.43-4.2c8.15-19.87,7.19-29.46-10.17-42.2-9.46-6.94-17.91-14.24-23.56-24.86-4.73-8.89-12.95-12.92-23.24-12-4.85.45-9.85.7-14.32,2.48-7.19,2.87-13.87,1.94-20.9-.43-13.82-4.66-25.56-.75-34.25,10.94a24.5,24.5,0,0,0-5.11,14.81c-.1,11.85-3,22.81-10.38,32.44-3.64,4.78-6.76,9.95-10.3,14.81-8.71,11.94-11.38,24.7-6.69,39.21,2.75,8.49,6.4,16.8,6.71,26.1s-1.49,18.55-6.72,25.76c-9.74,13.4-9.81,26.29-1.76,40C264,497.5,256.74,510,254.94,525,254.87,525.61,253.94,525.92,253.29,526.15Z"/><path class="cls-10" d="M458.65,502.8c.66,7.47,5.24,13.62,7,20.73a149.89,149.89,0,0,1-78.53,39.81c-50.31,9.06-95.07-3.71-133.82-37.19,2-6.93,1.9-14.32,5.26-21,3.6-7.17,7.39-14,14-18.91,2.33-5.46,7.62-7.85,12.07-10.77,10.33-6.78,20.56-13.84,32-18.79,2.45-1.06,4.8-3,7.73-1.28,3.77,21.11,32.14,29,49.79,17.65,6.8-4.35,11.65-10.36,17.58-15.4,3.17-1.28,5.88.21,8.57,1.53,11.61,5.72,23.13,11.62,34.74,17.35C446.4,482.14,453.35,491.72,458.65,502.8Z"/><path class="cls-11" d="M539.85,259.7h8.21c32.87,0,65.76-.78,98.6.26,47.4,1.5,94.83-.13,142.18,1.54,37.24,1.31,74.44.41,111.66.91,5.61.07,7,1.78,6.94,7.14q-.26,84,0,168c0,5.55-1.63,7-7.06,7q-154.15-.22-308.3,0c-6.21,0-7.08-2.33-7.06-7.7.19-41.66,0-83.32.21-125a15.27,15.27,0,0,0-5.1-12.12C567,287.09,554.24,274.08,539.85,259.7Z"/><path class="cls-12" d="M850.23,879.05c-9.13,14.59-22.79,22.73-39.5,21.8-13.62-.75-24.7-8.29-28.45-23.05.37-.58.6-1.46,1.13-1.7,11.32-5.28,8.52-15.44,8.55-24.61,0-2.91-2.24-4.44-4-6.21-8.19-8.29-15.39-17.16-18.41-28.77-1-3.74-4.09-6-6.61-8.73-7.36-7.84-7.6-12-1.15-20.69,1.73-2.32,1-4.89,1-7.34-.05-12.76,3.75-25.12,9.42-35.73,6.62-12.36,19.77-18.51,33.86-20.25,16-2,29.9,4.11,42.58,13.15,5.41,3.86,8.38,9.78,9.86,16.23a118.22,118.22,0,0,1,3,30.82c-.08,2.11-.77,4.36,1.68,6.23,4.77,3.67,6,10.06,1.24,13.93-9.78,8-14.5,18.55-18.19,30-.72,2.24-2.79,4.29-4.7,5.86-9.18,7.57-6.22,17.93-6,27.38.06,3,4.44,4.89,7.38,6.71C845.43,875.67,848.78,876,850.23,879.05Z"/><path class="cls-13" d="M324,455.64c-16.21,5.84-30.09,15.75-44.14,25.36-2.47,1.68-4.86,3.49-7.28,5.24C264,475,262,462.63,268.9,452.62c7.15-10.4,11.9-21.79,10.72-34.95-.73-8.18-3.95-15.69-6.6-23.18-5.61-15.82-1.41-29.23,7.63-42.07,4.51-6.41,9.1-12.76,13.4-19.31A39.77,39.77,0,0,0,300.16,308c-1.23-15.85,20.36-37,39.63-28.55,11,4.83,20.68,1.05,30.79-.82,16-3,25.57,1.13,33.07,15.6,4.2,8.11,10.73,13.69,18.09,18.63a75.43,75.43,0,0,1,7.69,5.87c14.46,12.64,14,24.22,5,42.22-4.46,8.88-7.29,17.76-7.66,27.58-.23,6.14-1.14,12.2.56,18.38a36,36,0,0,0,8.47,15.52c8.18,8.88,14.51,18.93,10.27,31.71-2.62,7.93.79,13.33,5.55,18.65,3.42,3.84,5.68,8.3,7.74,13,2.58,5.88,2.93,11.49-.67,17.05-4.85-2.55-5.9-8.06-9.07-11.95A45.83,45.83,0,0,0,435,478.5q-18.48-9.44-37.11-18.57a34.77,34.77,0,0,0-5.89-1.72c-12.72-2.22-16.79-7.27-17.16-19.94-.21-7.29,1.28-13.39,6.43-19,5.68-6.17,9.22-13.83,11.57-21.92,1.14-3.93,3-7.25,6.63-9.36,5-2.89,5.9-8,6.76-13,.24-1.4.2-3.33-1.14-3.73-6-1.79-4.15-6.28-3.87-10.27A74.61,74.61,0,0,0,398,333.55c-1.11-3.56-2.77-5.57-7.08-4-11,4-19.86.66-26.82-8.57-3.16-4.18-6.17-9.63-12.71-7.21-6.73,2.48-4.69,8.86-4.68,13.89,0,13.05-3.85,24.09-14.93,31.85-4.67,3.28-9.76,5.46-15.57,4.83-6.74-.74-11.51,2.86-14,8.07-2.31,4.92.53,10,4.33,13.75a33.49,33.49,0,0,1,8,12.79c3.13,8.62,8.71,15.83,14.89,22.41,4.25,4.52,6.68,9.29,6.12,15.52a27.08,27.08,0,0,0,.33,5.53C337,451.45,333.76,455,324,455.64Z"/><path class="cls-14" d="M324,455.64c2.27-1.14,4.49-2.4,6.82-3.41,3.51-1.53,5.11-3.82,3.67-7.67a5.34,5.34,0,0,1-.62-2.67c2.61-11.68-5.07-18.7-11.61-26.38a54.44,54.44,0,0,1-6.73-10.42c-3.65-7.06-6.31-14.42-12.46-20.28-5.75-5.48-3.1-11.08,2.09-18.48,3-4.23,5.71-4.09,8.91-3.7,16.92,2,30.23-14.84,30.74-29.84a110.38,110.38,0,0,0-.06-11.79c-.33-4.52,1.35-8,5.45-9.4s8.21-1,11.26,2.92a103.12,103.12,0,0,0,7.57,9c6.23,6.39,14,8.08,22,3.95,4.81-2.46,6.55-.81,8,3.34a72.11,72.11,0,0,1,3.66,33.35c-.32,2.74-1.86,5,2.79,4.23,1.71-.27,2.68,1.4,3.08,3.17,1,4.7-3.13,15.35-7.44,17.52-3.63,1.83-5.42,4.41-6.46,8.31a61.35,61.35,0,0,1-14.13,25.84c-8,8.78-5,26.2,5.52,31.51,2,1,3.93,2.33,5.89,3.51-7.16,12.06-18.13,18.49-31.49,21.54-11.51,2.63-28.71-4.76-35-14.78C323.61,461.89,324.13,458.81,324,455.64Z"/><path class="cls-15" d="M370.05,507.59c5.31.31,6.37,3.15,6.64,6.58.19,2.52,0,5.1.37,7.59s2.06,4.45,4.61,4.4c3.28-.07,2.28-3,2.17-4.8-.28-4.43,1.57-9.19-2.22-13.48H391c-3.19,4.45-1.56,9.51-1.86,14.36-.09,1.49-.49,3.55,1.71,3.94s3.49-1,4.47-2.66c1.5-2.53.89-5.4,1-8.13.1-3.72.86-6.88,6.07-8.16-1.95,3.74-1.56,7.21-1.65,10.64-.1,4.31-1.67,8.18-6.08,9-7.39,1.38-6.22,5.44-3.76,10.36h-8.57c2.45-5.07,3.32-9-4-10.43-4.44-.86-5.76-4.81-6-9.08C372.12,514.39,373.2,510.91,370.05,507.59Z"/></svg>