<?xml version="1.0" encoding="UTF-8" standalone="no"?>
<svg
   xmlns:dc="http://purl.org/dc/elements/1.1/"
   xmlns:cc="http://creativecommons.org/ns#"
   xmlns:rdf="http://www.w3.org/1999/02/22-rdf-syntax-ns#"
   xmlns:svg="http://www.w3.org/2000/svg"
   xmlns="http://www.w3.org/2000/svg"
   xmlns:sodipodi="http://sodipodi.sourceforge.net/DTD/sodipodi-0.dtd"
   xmlns:inkscape="http://www.inkscape.org/namespaces/inkscape"
   id="emoji"
   viewBox="0 0 72 72"
   version="1.1"
   sodipodi:docname="friendly_face.svg"
   inkscape:version="0.92.5 (2060ec1f9f, 2020-04-08)"
   inkscape:export-filename="/home/henriquegomide/github_repos/calma-webapp/src/assets/friendly_face.png"
   inkscape:export-xdpi="96"
   inkscape:export-ydpi="96">
  <metadata
     id="metadata44">
    <rdf:RDF>
      <cc:Work
         rdf:about="">
        <dc:format>image/svg+xml</dc:format>
        <dc:type
           rdf:resource="http://purl.org/dc/dcmitype/StillImage" />
      </cc:Work>
    </rdf:RDF>
  </metadata>
  <defs
     id="defs42" />
  <sodipodi:namedview
     pagecolor="#ffffff"
     bordercolor="#666666"
     borderopacity="1"
     objecttolerance="10"
     gridtolerance="10"
     guidetolerance="10"
     inkscape:pageopacity="0"
     inkscape:pageshadow="2"
     inkscape:window-width="1920"
     inkscape:window-height="1016"
     id="namedview40"
     showgrid="false"
     inkscape:zoom="6.5555556"
     inkscape:cx="48.347018"
     inkscape:cy="13.603043"
     inkscape:window-x="0"
     inkscape:window-y="27"
     inkscape:window-maximized="1"
     inkscape:current-layer="emoji" />
  <circle
     style="fill:#f0e5af;fill-opacity:1"
     id="circle2"
     r="24"
     cy="33"
     cx="36" />
  <path
     style="fill:none;stroke:#000000;stroke-width:2;stroke-linecap:round;stroke-linejoin:round;stroke-miterlimit:10"
     inkscape:connector-curvature="0"
     id="path4"
     d="M 56.1682,54.8031"
     stroke-miterlimit="10" />
  <path
     style="fill:#f0e5af;fill-opacity:1"
     inkscape:connector-curvature="0"
     id="path6"
     d="m 47.3881,67.6205 c 0.8485,-0.6666 2.1443,-1.7161 2.2206,-1.7533 0.8985,-0.4389 3.3418,-0.0282 9.4174,-3.5045 1.5333,-0.8783 5.0608,-3.3523 5.8577,-3.9568 2.8431,-2.1539 0.6223,-3.8514 -1.6236,-2.7544 1.221,-0.799 2.3416,-1.6767 2.8431,-2.1539 2.1521,-2.0489 0.1825,-4.6104 -3.2758,-2.4342 l -0.7026,0.4127 c 3.2363,-2.3459 0.5747,-4.6063 -1.1636,-3.379 -2.7926,1.9727 -8.0127,4.2443 -8.0127,4.2443 -0.4389,-0.8985 0.3913,-3.0071 0.3994,-3.8816 0.0207,-2.236 -1.9621,-2.1413 -2.6749,-0.9193 -1.8178,3.1138 -3.6356,6.2276 -4.0952,7.565 -0.325,0.9456 -0.2661,4.5817 -0.2661,4.5817 l -2.5416,1.2414" />
  <path
     style="fill:#f0e5af;fill-opacity:1"
     inkscape:connector-curvature="0"
     id="path8"
     d="m 28.2298,60.9286 -2.5416,-1.2414 c 0,0 0.0589,-3.6361 -0.2661,-4.5817 -0.4596,-1.3374 -2.2774,-4.4512 -4.0952,-7.565 -0.7128,-1.222 -2.6956,-1.3167 -2.6749,0.9193 0.0081,0.8745 0.8383,2.9831 0.3994,3.8816 0,0 -5.2201,-2.2716 -8.0127,-4.2443 -1.7383,-1.2273 -4.3999,1.0331 -1.1636,3.379 L 9.1725,51.0634 c -3.4583,-2.1762 -5.4279,0.3853 -3.2758,2.4342 0.5015,0.4772 1.6221,1.3549 2.8431,2.1539 -2.2459,-1.097 -4.4667,0.6005 -1.6236,2.7544 0.7969,0.6045 4.3244,3.0785 5.8577,3.9568 6.0756,3.4763 8.5189,3.0656 9.4174,3.5045 0.0763,0.0372 1.3721,1.0867 2.2206,1.7533" />
  <g
     id="hair" />
  <g
     id="skin" />
  <g
     id="skin-shadow" />
  <path
     style="fill:none;stroke:#606060;stroke-width:0.89600003;stroke-linecap:round;stroke-linejoin:round;stroke-miterlimit:9.45454502;stroke-opacity:1;stroke-dasharray:none;opacity:1"
     inkscape:connector-curvature="0"
     id="path14"
     d="M 56.0024,44.3614 C 57.9102,41.0099 59,37.1322 59,33 59,20.2969 48.7022,10 36,10 23.2969,10 13,20.2969 13,33 c 0,3.8802 0.9609,7.5361 2.6577,10.7426 0.1477,0.2791 0.301,0.5549 0.4597,0.827"
     stroke-miterlimit="10" />
  <path
     style="fill:none;stroke:#606060;stroke-width:0.96000004;stroke-linecap:round;stroke-linejoin:round;stroke-miterlimit:9.45454502;stroke-dasharray:none;opacity:1;stroke-opacity:1"
     inkscape:connector-curvature="0"
     id="path16"
     d="M 29.6054,55.1058 C 31.6289,55.6881 33.767,56 35.9779,56 c 2.1329,0 4.198,-0.2904 6.158,-0.8337"
     stroke-miterlimit="10" />
  <path
     style="fill:none;stroke:#606060;stroke-width:1.27999997;stroke-linecap:round;stroke-linejoin:round;stroke-miterlimit:9.45454502;stroke-dasharray:none;opacity:1;stroke-opacity:1"
     inkscape:connector-curvature="0"
     id="path18"
     d="m 45.8147,42.2268 c -5.6996,4.6987 -13.9298,4.6987 -19.6294,0" />
  <path
     style="fill:none;stroke:#606060;stroke-width:1.27999997;stroke-linecap:round;stroke-miterlimit:9.45454502;stroke-dasharray:none;opacity:1;stroke-opacity:1"
     inkscape:connector-curvature="0"
     id="path20"
     d="m 31.6941,30.4036 c -1.0598,-2.3854 -3.8527,-3.46 -6.238,-2.4002 -1.0697,0.4752 -1.9249,1.3305 -2.4002,2.4002"
     stroke-miterlimit="10" />
  <path
     style="fill:none;stroke:#606060;stroke-width:1.27999997;stroke-linecap:round;stroke-miterlimit:9.45454502;stroke-dasharray:none;opacity:1;stroke-opacity:1"
     inkscape:connector-curvature="0"
     id="path22"
     d="m 48.9441,30.4036 c -1.0598,-2.3854 -3.8527,-3.46 -6.238,-2.4002 -1.0697,0.4752 -1.9249,1.3305 -2.4002,2.4002"
     stroke-miterlimit="10" />
  <path
     style="fill:none;stroke:#606060;stroke-width:0.96000004;stroke-linecap:round;stroke-linejoin:round;stroke-miterlimit:9.45454502;stroke-dasharray:none;opacity:1;stroke-opacity:1"
     inkscape:connector-curvature="0"
     id="path24"
     d="m 15.8318,54.8031 c -1.7971,-0.8778 -4.5255,-2.2888 -5.9567,-3.327 -3.2363,-2.3459 -0.5747,-4.6063 1.1636,-3.379 2.7926,1.9727 8.0127,4.2443 8.0127,4.2443 0.4389,-0.8985 -0.3913,-3.0071 -0.3994,-3.8816 -0.0207,-2.236 1.9621,-2.1413 2.6749,-0.9193 1.8178,3.1138 3.6356,6.2276 4.0952,7.565 0.325,0.9456 0.2661,4.5817 0.2661,4.5817 l 1.6669,0.8142"
     stroke-miterlimit="10" />
  <path
     style="fill:none;stroke:#606060;stroke-width:0.96000004;stroke-linecap:round;stroke-linejoin:round;stroke-miterlimit:9.45454502;stroke-dasharray:none;opacity:1;stroke-opacity:1"
     inkscape:connector-curvature="0"
     id="path26"
     d="m 9.1725,51.0634 c -3.4583,-2.1762 -5.4279,0.3853 -3.2758,2.4342 1.0937,1.0407 4.1944,3.1857 8.0123,4.9571"
     stroke-miterlimit="10" />
  <path
     style="fill:none;stroke:#606060;stroke-width:0.96000004;stroke-linecap:round;stroke-linejoin:round;stroke-miterlimit:9.45454502;stroke-dasharray:none;opacity:1;stroke-opacity:1"
     inkscape:connector-curvature="0"
     id="path28"
     d="m 8.7398,55.6515 c -2.2459,-1.097 -4.4667,0.6005 -1.6236,2.7544 0.7969,0.6045 4.3244,3.0785 5.8577,3.9568 6.0756,3.4763 8.5189,3.0656 9.4174,3.5045 0.0763,0.0372 0.6038,0.4662 1.4523,1.1328"
     stroke-miterlimit="10" />
  <path
     style="fill:none;stroke:#606060;stroke-width:0.96000004;stroke-linecap:round;stroke-linejoin:round;stroke-miterlimit:9.45454502;stroke-dasharray:none;opacity:1;stroke-opacity:1"
     inkscape:connector-curvature="0"
     id="path30"
     d="m 44.6449,60.5014 1.6669,-0.8142 c 0,0 -0.0589,-3.6361 0.2661,-4.5817 0.4596,-1.3374 2.2774,-4.4512 4.0952,-7.565 0.7128,-1.222 2.6956,-1.3167 2.6749,0.9193 -0.0081,0.8745 -0.8383,2.9831 -0.3994,3.8816 0,0 5.2201,-2.2716 8.0127,-4.2443 1.7383,-1.2273 4.3999,1.0331 1.1636,3.379 -1.4312,1.0382 -4.1596,2.4492 -5.9567,3.327"
     stroke-miterlimit="10" />
  <path
     style="fill:none;stroke:#606060;stroke-width:0.96000004;stroke-linecap:round;stroke-linejoin:round;stroke-miterlimit:9.45454502;stroke-dasharray:none;opacity:1;stroke-opacity:1"
     inkscape:connector-curvature="0"
     id="path32"
     d="m 58.091,58.4547 c 3.8179,-1.7714 6.9186,-3.9164 8.0123,-4.9571 2.1521,-2.0489 0.1825,-4.6104 -3.2758,-2.4342"
     stroke-miterlimit="10" />
  <path
     style="fill:none;stroke:#606060;stroke-width:0.96000004;stroke-linecap:round;stroke-linejoin:round;stroke-miterlimit:9.45454502;stroke-dasharray:none;opacity:1;stroke-opacity:1"
     inkscape:connector-curvature="0"
     id="path34"
     d="m 48.1564,67 c 0.8485,-0.6666 1.376,-1.0956 1.4523,-1.1328 0.8985,-0.4389 3.3418,-0.0282 9.4174,-3.5045 1.5333,-0.8783 5.0608,-3.3523 5.8577,-3.9568 2.8431,-2.1539 0.6223,-3.8514 -1.6236,-2.7544"
     stroke-miterlimit="10" />
  <path
     style="fill:none;stroke:#000000;stroke-width:2;stroke-linecap:round;stroke-linejoin:round;stroke-miterlimit:10"
     inkscape:connector-curvature="0"
     id="path36"
     d="M 31.1632,63.9534"
     stroke-miterlimit="10" />
</svg>
