<svg id="Layer_1" data-name="Layer 1" xmlns="http://www.w3.org/2000/svg" viewBox="0 0 1200 1200"><defs><style>.cls-1{fill:#f0e5af;}.cls-2{fill:#c2d6dd;}.cls-3{fill:#8bb7a6;}.cls-4{fill:#bbe7d6;}.cls-5{fill:#c4b0d5;}.cls-6{fill:#a490b2;}.cls-7{fill:#f3d3bc;}.cls-8{fill:#746485;}.cls-9{fill:#a28eb1;}.cls-10{fill:#917ea1;}.cls-11{fill:#a999b9;}.cls-12{fill:#a996b9;}.cls-13{fill:#a898b9;}.cls-14{fill:#a693b6;}.cls-15{fill:#a798b7;}</style></defs><title>arte 4</title><path class="cls-1" d="M939.17,1027.33c-5.54,6.6-12.64,11.47-19.49,16.41A587.3,587.3,0,0,1,839,1092.83c-32.91,16.49-67.44,28.41-102.8,38.56C713.09,1138,689.61,1141.8,666,1145c-14.23,1.94-28.87,1.23-43.13,3.4-17.8,2.71-35.63,1.55-53.14-.46-22-2.51-44.14-4.53-66-8.39a510.43,510.43,0,0,1-104.16-29.66c-40.56-16.5-79.14-36.72-114.55-62.61-11-8.08-22.23-16.08-31.95-25.84-3.27-3.72-3.37-8-2.76-12.68a202.41,202.41,0,0,1,17.62-61.35c10.36-21.71,21.71-43.36,42.13-58.06q17.24-12,33.59-25.13c29.78-19.33,60.08-37.71,92.64-52.15,10.36-4.59,20-10.8,30.27-15.61,3.32-1.55,6.63-4,10.7-2.16,1.65,2.17.83,4.53.45,6.82-1.41,8.68,1,16.13,6.27,23.16,8.85,11.86,18.51,22.62,32.24,29a31.83,31.83,0,0,1,7.72,5,104.06,104.06,0,0,0,58.93,12.19c1.89-.16,3.76-.86,5.64-.71,19.13,1.55,34.74-7.82,50.65-16.24,22.5-11.54,41.08-27.41,54.36-49.15a8.79,8.79,0,0,1,3.35-3.57c3.2-1.28,6,.07,8.87,1.27a584.22,584.22,0,0,1,55.15,26.4c18.67,10.28,37.82,19.78,57.09,29,17.62,9.49,35.2,19,49.51,33.42,9.7,10.76,17.42,23.11,26.82,34.07,8.44,9.84,15.67,20.39,20.38,32.33,8.09,20.5,17.25,40.57,24.71,61.32C940.43,1021.46,941.66,1024.49,939.17,1027.33Z"/><path class="cls-2" d="M145.79,297.94c8.6-15.64,19.67-29.57,30.7-43.44a516,516,0,0,1,49.47-54,557.45,557.45,0,0,1,116.94-85A541.86,541.86,0,0,1,468.44,66.51a487.53,487.53,0,0,1,69-12.36c23.57-2.53,47.17-4.71,70.87-4C678,52.14,745.35,65.4,809.79,92.8a548.59,548.59,0,0,1,118.39,68.72c28,21.33,53.32,45.53,76.9,71.7,18.77,20.84,35,43.51,51.05,66.39-2.44,2.46-5.64,2.27-8.68,2.27-89.65,0-179.3.18-268.94,0-3.77.55-6.12-1.91-8.67-4.06-19.17-16.25-41-25.88-66.46-24.64-14.31.7-27.43.43-34.55-14.93-.84-1.84-2.93-3.09-4.17-4.83-10.68-15-25.94-22.07-43.54-24.13-11.52-1.34-23.25-1-34.85,0A41.64,41.64,0,0,0,565,236.8c-3.57,2.59-6.68,2.68-10.35.09C526.42,217,477.54,227.63,457.49,248c-13,13.12-22.16,27.64-26.54,45.4-.62,2.51-1.16,5.19-4.09,6.27-3.72,1.15-7.54.85-11.32.86q-128.1,0-256.21,0c-3.78,0-7.6.35-11.31-.82A5,5,0,0,1,145.79,297.94Z"/><path class="cls-2" d="M311.49,890.38a139.22,139.22,0,0,0-28.88,33.74,224.69,224.69,0,0,0-30.9,87.54c-.48,3.41.69,6.56,1.36,9.79-20.2-15.53-37.75-33.8-55-52.45a516.89,516.89,0,0,1-51-65.5C107.56,843.94,81,778.9,66.63,709,61.78,685.44,59,661.5,57.28,637.4a574.34,574.34,0,0,1-.75-66.88,526.54,526.54,0,0,1,18.92-118C86.32,413.58,100.8,376,120.06,340.43c7.88-14.57,15.43-29.38,25.74-42.49l.39.36c3.05,3.7,2.17,8.14,2.18,12.33q.09,84.84,0,169.67V874.54c0,13.26,0,13.27,13.35,13.27q68.79,0,137.59.05C303.5,887.87,308,886.84,311.49,890.38Z"/><path class="cls-2" d="M939.17,1027.33c.17-7.37-3.23-13.79-6-20.23-6.58-15.43-12.8-31-18.83-46.64-8-20.69-23.68-36.22-36.42-53.73-3.74-5.15-7.66-10.16-11.5-15.23,3.67-3.13,8.13-2.21,12.31-2.21q79.88-.1,159.74,0c1.9,0,3.8,0,5.71,0,10.45-.08,10.74-.51,11-10.75,3.09-99.09,2.13-198.22,1-297.3-1-88.66-.14-177.29-.91-265.94,0-4.37-1.15-9.13,2.42-12.9,33.48,53.18,57.79,110.23,71.89,171.5A603.39,603.39,0,0,1,1142.13,555c1.32,14.67,1.85,29.44,1.74,43.93-.24,32.79-2.47,65.56-8.58,98a584.23,584.23,0,0,1-27.94,100.31c-19.36,50.86-46.12,97.51-79.38,140.61-19.35,25.08-41.36,47.61-64.2,69.36C956.14,1014.48,948.47,1022,939.17,1027.33Z"/><path class="cls-3" d="M1057.72,302.35c0,86.77-1.1,173.56.26,260.31,1.5,96.25.3,192.49.73,288.73,0,11.33-1.25,22.72-1,34.1.13,5.41-2.85,6.16-7.26,6.13-17.59-.12-35.18-.06-52.78-.07l-131.23,0C858.7,888,854,880.76,847.11,876.05c-9.4-6.45-20.36-10.08-29.29-17.21,1.19-4.48,4.94-4.66,8.44-4.69,36.56-.39,73.12-.72,109.68-.58,24.71.1,49.43,0,74.14,0,12.32,0,12.35,0,12.35-12.1q0-103.38,0-206.76,0-145.79,0-291.59c0-12.66,0-12.68-12.47-12.68q-102.32,0-204.62,0c-4,0-8.08.29-12.06-.57a6.09,6.09,0,0,1-4.32-3.28c-3.78-7.79-8-15.32-12.31-22.84a2.92,2.92,0,0,1,0-2.7c1.61-2,3.88-1.47,6-1.47q136.78,0,273.56,0Z"/><path class="cls-4" d="M790.91,328.13c75.1,0,150.2.13,225.3-.1,6.87,0,8.66,1.8,8.65,8.66q-.28,255.24,0,510.48c0,7.46-2.14,9-9.16,8.91-49.9-.3-99.81-.24-149.72-.1-10.89,0-21.77,1.12-32.66,1.14-5.3,0-10.74-2.62-15.53,1.72-14.7-6.08-28.65-13.69-42.72-21-23.93-12.45-47.56-25.49-72.77-35.28-1.7-.66-3.69-.56-5.55-.82-6.29-6.55-14.88-9.24-22.72-13-15.34-7.31-25.64-17.86-26-35.75-.25-13.22-1.81-26.47.94-39.62,1.83-1.7,4-1.07,6.1-.82,5.72.7,11.09-.43,15.33-4.25,5.73-5.16,11.72-5.15,18.52-2.77,12.15,4.27,24.08,3.7,36.09-1.43,9-3.87,16.8-9.05,22-17.31,4.8-7.59,10.95-14.33,14.24-22.9,1.7-4.41,5.64-5.21,10-5.08,16,.46,29.68-4.47,40.53-16.91,7.72-8.85,11.08-18.64,9.29-30.17a72.37,72.37,0,0,0-7.91-24.25c-3.2-5.81-2.52-8.2,3.89-10.11,42.77-12.73,47.42-67.11,27.73-94.51-4.87-6.79-5.7-12.37-1.26-19.3,5.54-8.63,5.52-18.45,5.25-28.27-.83-30.17-12.53-54.36-39.29-69.73-8.31-4.78-13.35-11.17-15-20.38C793.59,339.45,789.39,334.4,790.91,328.13Z"/><path class="cls-4" d="M476.91,794.7c-10.2,2-18.53,8.2-27.67,12.54C421,820.65,393.38,835.18,366.6,851.3c-7.64,4.6-15,9.61-22.54,14.43-8.56,2.42-17.31,2.58-26.12,2.56q-64.2-.13-128.38,0c-2.85,0-5.7-.06-8.56-.1-5.92-.08-8.6-3.16-8.66-8.93,0-2.85-.09-5.7-.09-8.55V338.6c0-16.82.27-17.09,17.11-17.1H401.9c3.79,0,7.61-.27,11.34.67,2.38,1,4.08,2.29.81,4.2a40.82,40.82,0,0,1-10,3.74c-23,6.23-37.63,22.25-48.2,42.41-6.72,12.82-4.07,27.06-3.44,40.69.32,6.72-1.69,9.81-7.47,12.48-24.22,11.17-37.22,30.82-41.38,56.71-.9,5.58-1.92,11.15-1.13,17,1.16,8.48,3.87,15.76,10,22.22,6.46,6.82,8.49,9.28.79,18.69-11.12,13.57-9.52,38.19,1.5,51.76a82.86,82.86,0,0,0,34.47,25.58c5.71,2.25,9.56,5.83,9.91,12.53,1.87,35,37.34,54.82,60.19,55.35,8.86.2,15.4,2.62,21.81,9.34C457,711.52,477.57,714.71,499.53,712c2.79-.34,5.48-1.73,8.39-.68,2,1.39,2.23,3.54,2.4,5.68,1.33,17.24,1.08,34.57,2.72,51.8.28,2.91-.25,5.88-2.36,8A65.61,65.61,0,0,1,476.91,794.7Z"/><path class="cls-5" d="M476.91,794.7c8.25-4.16,16.57-8.17,24.73-12.51,8.87-4.72,10.44-8.51,8.66-18.43a33.1,33.1,0,0,1-.41-7.77c.85-13.51-2.07-26.87-1.52-40.36a4.36,4.36,0,0,0-1.32-3.87c-.4-5.92-4-9.85-8.31-13.36-21-17.15-34.26-40.3-48.79-62.48-7.88-12-12.72-25.39-16.26-39.24a15.27,15.27,0,0,0-6.49-9c-21.38-14.74-30.53-36.08-33.09-61a22.94,22.94,0,0,1,1.31-11.19c3.62-8.9,11.78-11.38,19.43-5.62,2.61,2,5,3.47,8.39,2.54,10.62,1,21.3.17,31.92,1.75,5.92.89,8.13,3.41,8.19,9.21.08,8.91-1.35,18,2.74,26.54.54.59,1.05,1.2,1.56,1.81,26.78,16.34,53.89,17.73,81.52,2.09,3.11-1.76,4.37-3.91,4.34-7.37,0-7.36,0-14.73,0-22.08,0-5.54,2.29-8.45,8-8.49,7.36-.05,14.72,0,22.08,0,5.69,0,8.11,2.74,8.08,8.35a115.54,115.54,0,0,0,2.7,26,18.58,18.58,0,0,1,1.67,1.65c27.71,16.57,55.35,15.23,82.94-.29,3.25-1.83,4.44-4.57,4.38-8.27q-.2-10.34,0-20.67c.13-7.58,1.26-8.82,8.85-10.29a18.45,18.45,0,0,1,4.23-.55c9.28.33,18.4-2.18,27.7-1.59C712,509,700,511.68,688,511.71a24.09,24.09,0,0,1-10.35-1.86Q637,491.46,597.35,512a31.33,31.33,0,0,1-15.74,3.63c-5.23-.15-10.46-.07-15.68,0-9.35.09-18.1-1.34-26.76-5.74-22.53-11.43-45.78-8.56-68.54-.6a63.52,63.52,0,0,1-31.52,2.59c-5.85-.92-11.94.71-17.58-1.89-2.49-2.47-2.09-5.69-2.09-8.72,0-7.38-.12-14.65-2.53-21.82-1.84-5.47-.29-7.31,5.74-7.62,6.41-.33,12.75-.53,19.08-2.05,15.56-3.74,26.55-13.17,34.63-26.54,1.2-2,1.76-4.48,4.14-5.59,3.76.47,3.18-2.87,3.89-4.78,2.56-6.8,2-14,2.18-21.08s1.51-8.11,8.12-5.59c9.43,3.58,19.08,2.78,28.76,2.32-6.82-.05-13.68.55-20.45-.46-2.84-.43-6.37-.28-7.75-3.94,2.56-3.16,6-2.18,9.17-1.77,24.92,3.2,43.84-6.91,55.08-29.34,1.84-3.69,2.41-8.34,6.9-10.3,10.75,1.26,21.22.55,30.62-5.47,5.07-3.24,11.06-5.73,12.75-12.49,4.91-6.15,6.73-6.12,9.42.58,5.26,13.09,13.81,23.54,24.86,32.15,5.94,4.63,13,5.29,20,6.31,14.69,2.13,28.69,1.85,41-8.41,5-4.18,6.81-3.32,9.2,2.24-9.68,3.77-17.13,11.5-27.76,15.39,7.32-1.86,12.52-5.79,17.9-9.38,6.73-4.48,9.84-3.42,12.26,4.47a147.48,147.48,0,0,1,4.06,17.71c.43-4.08-3-7.7.9-11,3.88,1.68,4.23,5.5,5.2,8.83A233,233,0,0,1,734.5,496c-.25,2.13-.14,4.27-.21,6.41-.11,3.39,1.11,4.93,4.82,5.48,11.34,1.69,16.14,8.66,14.46,20.13-1.42,9.67-4.26,19-7.07,28.31-3.93,13-12.07,22.65-24.62,27.91-5.46,2.3-8.09,5.84-9.39,11.35a273.77,273.77,0,0,1-11,34.61c-8.8,23.06-22.86,42.56-39.84,60.12-5.5,5.68-11.6,10.75-10.48,19.85.14,1.15-.78,2.21-1.5,3.16.5,14.91-.55,29.79,1,44.76,1.51,14.41,10.77,21.38,21.61,27.66,7.14,4.13,15.19,6.49,22.1,11.14,1.9,1.28,3.81,2.12,2.36,4.84-12.94,23.61-32,40.72-56,52.58-8.91,2.54-16.9,7.33-25.65,10.33-20.68,7.1-41.64,5.21-62.67,2.63-10.4-1.27-20.52-3.56-29.9-8.42-16.43-7.55-29.47-18.81-40.24-33.48C475.15,815.53,474.62,805.65,476.91,794.7Z"/><path class="cls-3" d="M415.61,324q-117.63-.06-235.26-.19c-4.2,0-6.33,1.11-5.78,5.6a35.93,35.93,0,0,1,0,4.28V856.22c0,9.58,0,9.58,9.58,9.58,47.76,0,95.53-.11,143.29.21,5.55,0,11.05-3.49,16.6-.28-10.23,9-21.37,16.88-32.57,24.65l-156.19-.13c-9.23,0-9.23,0-9.23-9.27q0-289.2,0-578.41c0-1.42.09-2.85.14-4.27l282.15.07c2.53.87,2.78,3,2.63,5.16-.31,4.22-.08,8.47-.58,12.66C429.29,325.37,424.49,327.86,415.61,324Z"/><path class="cls-6" d="M522.6,858.85c20.59,5.28,41.34,8.83,62.77,8.64,15.3-.13,29.31-4.21,43-10.25,4-1.76,7.79-4.08,12.45-2.93-15.58,9-31,16.79-50,17.9C573,873.24,556,872,539,867.1,533.14,865.38,526.85,864,522.6,858.85Z"/><path class="cls-7" d="M415.61,324c2.57,0,5.14-.19,7.7-.1s3.88-1.08,4.25-3.56c1.07-7.29,1.71-14.59.79-21.95a85.35,85.35,0,0,1,21-44.79c12.88-14.64,28.7-23.8,47.68-27.39,21.3-4,41.93-3.17,60.21,10.4,2.34,1.73,3.55,1,5.46-.48,8.37-6.45,18.15-9.09,28.52-9.2,16.06-.17,32.18-1.27,47.78,4.55,6.58,2.45,12.69,5.54,17.55,10.38,7.84,7.83,16.1,15.46,21.12,25.59,1.94,3.91,5,3.62,8.35,3.71,13.46.38,27-1.44,40.35,1.94a110.75,110.75,0,0,1,50.24,28c5.51,8.64,11.37,17.08,14.29,27.07a41,41,0,0,1,1.82,5.38c3.22,16.34,11.77,27.56,26.57,36.66,17.74,10.9,27.05,29.23,30,50.23,1.61,11.29,2.41,22.52.14,33.84-1.43,7.13-8.48,12.89-7.72,19.43.71,6.17,8,10.86,10.28,17.41,8.85,25,9.14,49-8.35,71-6.81,8.58-15.58,13.79-25.74,16.78-5.55,1.64-5.51,3.44-3,8.33,8.07,15.52,12.89,31.64,3.87,48.67-8.3,15.65-29.57,26.9-47,24.78-5.1-.62-7.37,1.12-10,6.19-6.28,12.06-12.84,24.64-24.24,32.69-9.88,7-21.25,11.44-33.87,10.85a68.06,68.06,0,0,1-18.63-4c-4.27-1.44-8-1.3-11.7,2.16-6.77,6.32-14.88,7.85-23.73,4.81-1.45-9.39,1.81-16.25,8.92-23,26.14-24.72,42.12-55.47,50.76-90.21.91-3.66,2.35-7.23,2.84-10.94.38-2.88,1.56-3.66,4.18-4.59,14.27-5,24.22-14.54,28.48-29.35,2.73-9.52,5.55-19,7.16-28.82,1.69-10.28-5.16-17.87-15.46-16.32-5.17.78-4.42-2.37-4.18-5a355.45,355.45,0,0,0,1.13-55.35A169.89,169.89,0,0,0,721.07,395c-3.38-5.25-6.25-10.71-7.31-17-1.46-4.65-4.15-4.53-7.32-1.76-17.81,15.63-38.5,12.55-57.58,5.67-15.67-5.65-25.34-20.23-31.27-35.89-2.4-6.36-3.64-5.36-6.53-1-10.63,11.13-22.89,18.66-39,17.53-1.93-.13-3.74-.4-5.28,1.07-5.28,6.39-7.06,14.71-12.43,21.2-13.06,15.81-29.32,22.38-49.59,19.29a82.75,82.75,0,0,0-9.2-.41c-8.52,1.91-8.4,1.91-8.61,11.87-.16,7.81-.48,15.65-5.69,22.2-11.48,24.73-30.93,36.59-58.1,35.69-4.93-.16-6.65,1.18-4.39,5.93,4.62,9.71,1.64,20.14,2.86,30.17a2.62,2.62,0,0,1-.08,3.61c-1.15,2.82-2.59,2.91-4.7.76-3.84-3.92-7.63-8.3-14-4.73s-7.65,9.52-7,15.9c2.38,23.33,9.54,44.47,29.75,58.68,6.2,4.36,9.4,9.6,11.23,17,5.18,21,16.52,39.15,29.29,56.3,7.9,10.61,14.65,22.16,24.25,31.44a174.43,174.43,0,0,0,14.32,12.74c3.91,3,4.75,6.17,2.41,10.35-21.73,8-55.95,1-71-19.34-3.76-5.06-8.84-4.66-14-4.83-24.32-.79-42.92-12.24-56.75-31.55-5.27-7.36-7.73-16.37-8-25.47-.16-6.1-3.14-9.35-8.2-11.07-16.61-5.63-28.84-16.92-39.43-30.28a21.21,21.21,0,0,1-4.23-10.45c-2.13-15.8-3.27-31.36,9.69-43.81,2.24-2.16,2.79-4.34.34-6.73-.68-.66-1.21-1.48-1.9-2.12-10.05-9.31-14.57-21-13.26-34.43,1.81-18.63,6.62-36.3,20.06-50.48,7.78-8.22,16.5-15,27.26-18.79,3.62-1.27,3.28-3.17,3.12-6.48-.77-15.76-3.93-32.05,4.52-46.71,11.43-19.79,26.21-35.93,49.84-41.29C408.73,327.11,412.12,325.32,415.61,324Z"/><path class="cls-8" d="M421.54,513.29c0-1.2,0-2.4.08-3.61a105,105,0,0,1,19.17.41c9.38,1,18.55,1.14,28-2.28,23.29-8.48,47.33-12.23,70.45-.12,16.32,8.55,33.29,4.4,50,5.42,2.11.13,4.4-1.6,6.49-2.69,27.51-14.3,55.22-15.11,83.56-2.17,8.2,3.74,17.18.41,25.8.32,7.12-.08,14.22-.51,21.34-.66,1.5,0,3.85-.58,4,1.76.2,2.94-2.43,2.28-4.16,2.39-11.12.74-22.24,1.52-33.37,2.05-5.75.26-8.31,2.27-7.74,8.63.67,7.54.11,15.19.13,22.8,0,2.42-.28,4.3-2.61,6.05-22.68,17-63.53,18.34-87,2.6a9.81,9.81,0,0,1-1.76-2.14c3.36-2.44,6.4-.37,9.38.82,8.83,3.54,17.75,6.38,27.33,7.52,16.65,2,31.28-3.43,45.48-11a7.5,7.5,0,0,0,4.21-6.92c.12-7.12.07-14.23,0-21.35-.05-5.55-3.74-7.91-8.24-9.39-17.19-5.65-34.57-8.33-52.43-3.19-5.93,1.71-11.73,3.8-17.6,5.71-5.22,1.71-7.42,5.22-7.57,10.68-.17,6,1.26,11.79,1.39,17.71.08,3.28.52,6.7-1.89,9.52-3.78-.08-3-3-3-5.17-.38-7.8-.85-15.61-1-23.41,0-3.69-.76-5.75-5.1-5.62-8.29.25-16.6.19-24.9,0-3.81-.09-4.91,1.55-4.83,5.1.17,8.3.05,16.6.12,24.9,0,2.7-.28,4.77-3,6.55-24.95,16.24-60.42,16.22-84.89-.33a10.81,10.81,0,0,1-1.85-2.11c3.28-2.06,5.91.29,8.63,1.4,14,5.7,28.17,10,43.56,8,9.54-1.23,18.34-4.73,27-8.57a9.11,9.11,0,0,0,5.79-9c0-3.32-.49-6.74.13-9.94,2.12-11-3.61-15.89-13-20.07-22.4-10-44.34-7.68-66.5.14-4.16,1.47-5,4.42-5.09,8.31-.25,9.93.7,19.87-.47,29.78-5.27-2.83-3.28-8.23-3.93-12.42-.87-5.55-.55-11.33-.25-17,.25-4.72-1.13-6.13-6.18-6.76C444.07,514.57,432.59,516.5,421.54,513.29Z"/><path class="cls-9" d="M646,698.79c-7,9.92-11.28,21.56-20.74,29.61-21,17.88-44.34,27.05-71.3,16.15-16.46-6.65-31.63-16.22-42-31.57-1.11-1.65-3.31-4-1.46-5.67,2.2-2,3.44,1.25,4.93,2.4,16.76,12.91,35.89,19.13,56.7,22.39C597,736,615.07,724.85,631.81,709,636,705,640.44,701.15,646,698.79Z"/><path class="cls-10" d="M537.54,662.1c4.08.06,6.19,2.25,8.23,4,14.87,12.57,33.75,9.47,47.87-.23,2.72-1.87,5.36-3.86,8.11-5.68.93-.62,2.18-1.39,3.12-.08a2.37,2.37,0,0,1-.48,3.21c-2.62,2.38-5.13,5-8.1,6.83C576.29,682.57,552.62,683.57,537.54,662.1Z"/><path class="cls-11" d="M481.25,437.89c2.51-10.2,5.36-20.35,4.34-31.05-.38-4,1.61-5,5.16-4,1.57.43,3.19.65,4.79,1,8.2,4.4,17.09,2.26,25.69,2.72a49.63,49.63,0,0,1,8.54.67c-9.2,5.35-19.25,4.69-28.91,2.54-12.55-2.8-12.57-3.38-12.38,9.65.12,8.23-2.5,15.66-5.69,23.9C480.79,441.4,481.51,439.48,481.25,437.89Z"/><path class="cls-12" d="M717.67,566c2.45-11.23,4.67-21.38,6.89-31.52,2.15,2.5,3.56,4.26,6.14,5.75,5.7,3.31,5.72,10.82.46,14.91-2.18,1.69-5.13,2.42-7.2,4.2C722.1,561,721.92,564.16,717.67,566Z"/><path class="cls-13" d="M713.76,378.08c3.65,5.13,6.47,10.62,7.31,17-.25,4.41,2.72,8.65.57,13.45-3.08-1.86-3.2-4.85-3.71-7.87A117.81,117.81,0,0,0,715,388.23c-1.81-6.43-3.82-7-9.43-3.23-6.76,4.53-13.25,9.77-23.16,9.67,8.68-6.86,18.76-9.88,26-17.21C710,375.87,711.9,378.28,713.76,378.08Z"/><path class="cls-14" d="M429.55,563.3c-3.3-5-6.59-8.08-11.31-10.21-7.37-3.32-7.34-10.51-.58-15.21,1-.7,2-1.13,2.23-2.44.32-1.71-.49-4.45,2.28-4.35s2.86,3.24,3,5C426,544.81,430.87,552.93,429.55,563.3Z"/><path class="cls-15" d="M566.77,363.74c.47-2.91,2.7-3,4.85-2.78,13.75,1.38,24.52-5,34.6-13.21,1.47-1.2,2.77-2.58,4.84-2.61-.24,8-7.39,10-12.43,13.22C589,364.53,578.28,367.24,566.77,363.74Z"/><path class="cls-5" d="M594,552.12c-.42-9.7-.77-19.39-1.3-29.08-.26-4.93,1.83-7.83,6.38-9.81,24-10.44,48.28-12.52,73.29-3.79,7.18,2.51,11.4,6.08,10.17,14.39a45.22,45.22,0,0,0,0,12.78c1.32,9.09-2.4,13.64-10.74,17.68-23.77,11.51-47,10.74-70.46,0-2.35-1.08-4.64-2.47-7.4-2.22Z"/><path class="cls-5" d="M465.67,552.13c-3.36-7.26-1.28-14.94-1.48-22.4-.42-15.87-.12-15.73,14.94-20.45,24.77-7.77,48.13-4.58,70.51,8.21,2.35,1.35,2.81,2.77,2.8,5,0,8.07-.18,16.15.1,24.21.16,4.6-2.9,6-6.11,7.67-24.73,13.2-49.48,12.13-74.31.27-2.12-1-4.38-1.75-6.57-2.62Z"/><path class="cls-5" d="M425.52,553.51c-5.37-2.88-8.4-4.93-8.27-9.25a1.82,1.82,0,0,1,2.38-1.85C425,544.11,421.4,549.36,425.52,553.51Z"/></svg>