<?xml version="1.0" encoding="UTF-8" standalone="no"?>
<svg
   xmlns:dc="http://purl.org/dc/elements/1.1/"
   xmlns:cc="http://creativecommons.org/ns#"
   xmlns:rdf="http://www.w3.org/1999/02/22-rdf-syntax-ns#"
   xmlns:svg="http://www.w3.org/2000/svg"
   xmlns="http://www.w3.org/2000/svg"
   xmlns:sodipodi="http://sodipodi.sourceforge.net/DTD/sodipodi-0.dtd"
   xmlns:inkscape="http://www.inkscape.org/namespaces/inkscape"
   id="Layer_1"
   data-name="Layer 1"
   viewBox="0 0 1200 1200"
   version="1.1"
   sodipodi:docname="arte 5.svg"
   inkscape:version="0.92.5 (2060ec1f9f, 2020-04-08)">
  <metadata
     id="metadata25">
    <rdf:RDF>
      <cc:Work
         rdf:about="">
        <dc:format>image/svg+xml</dc:format>
        <dc:type
           rdf:resource="http://purl.org/dc/dcmitype/StillImage" />
      </cc:Work>
    </rdf:RDF>
  </metadata>
  <sodipodi:namedview
     pagecolor="#ffffff"
     bordercolor="#666666"
     borderopacity="1"
     objecttolerance="10"
     gridtolerance="10"
     guidetolerance="10"
     inkscape:pageopacity="0"
     inkscape:pageshadow="2"
     inkscape:window-width="640"
     inkscape:window-height="480"
     id="namedview23"
     showgrid="false"
     inkscape:zoom="0.19666667"
     inkscape:cx="600"
     inkscape:cy="600"
     inkscape:window-x="0"
     inkscape:window-y="27"
     inkscape:window-maximized="0"
     inkscape:current-layer="Layer_1" />
  <defs
     id="defs4">
    <style
       id="style2">.cls-1{fill:#f3d3ba;}.cls-2{fill:#f6d4e2;}.cls-3{fill:#c4b0d5;}.cls-4{fill:#bbe7d6;}.cls-5{fill:#8a777f;}.cls-6{fill:#a7d3c2;}.cls-7{fill:#81ab9c;}</style>
  </defs>
  <title
     id="title6">arte 5</title>
  <path
     class="cls-1"
     d="M242.38,1015.78c-15.16-11.17-28.48-24.39-41.25-38.09a586.84,586.84,0,0,1-53.47-65.91,544.91,544.91,0,0,1-83.79-190,531.67,531.67,0,0,1-11.08-69.42,540.88,540.88,0,0,1-2.53-69.79,548,548,0,0,1,97.59-295.92,536.6,536.6,0,0,1,73.9-86.33A548,548,0,0,1,507.5,57.65a563.57,563.57,0,0,1,60-6.53c16.86-1,33.68-1.46,50.45-.82a547.32,547.32,0,0,1,290.24,94.85,539.93,539.93,0,0,1,90,76.29,551.52,551.52,0,0,1,98.12,143.29A545.7,545.7,0,0,1,1141,507.09a560.33,560.33,0,0,1,6.55,59.24c1,16.6,1.48,33.18.91,49.72A547.55,547.55,0,0,1,1050.89,912,571.93,571.93,0,0,1,977,998.34c-3.27,3.15-7,5.79-10.56,8.67,1.72-18.68-9.76-33.46-14.89-50.11-2.46-8-7.49-15.07-8-23.73.72-5.13,3.48-9.48,5.67-14,5.58-11.46,6-23.06,2-35-2.84-8.45-6.08-16.73-9.35-25-5-12.71-14.56-22-22.93-32.16-6.42-7.84-12.31-16-16.72-25.23-4.12-8.57-5.41-17.46-3-26.69A191,191,0,0,0,905,738c1.28-19.7-4.53-37.59-16-53.61-8.37-11.75-16.4-23.73-26.49-34.23-18.49-19.25-26.06-43.24-29.51-69.14a110.19,110.19,0,0,1-.09-28c2.13-17.64,1.28-35.56,5.64-53,5.49-22,11.35-43.8,25.31-62.39,4.1-5.45,6.19-12,8.17-18.43,6.87-22.14,12.61-44.49,8.68-68.08a65.25,65.25,0,0,0-14.67-31.77c-13.55-16-28.61-30.53-46.36-42-12.34-8-23.77-17.2-34.94-26.77-15-12.86-23.47-30.22-33.58-46.6-11.34-18.39-25.63-34.27-46.11-43.15-11.73-5.09-24-6.06-36.7-5.2a310.55,310.55,0,0,0-81.78,16.57,17.27,17.27,0,0,1-10,.31c-11.71-2.81-23.26-6-34.46-10.64-25.73-10.67-51-8.84-76.29,2.61-30.36,13.75-50.14,36.73-60.69,67.81-4.21,12.42-1.65,25.87-3.59,38.61-3.72,24.33-5.86,48.95-19.43,71-14.16,23-29.7,44.91-45.66,66.65C321,429.67,307.06,452.28,302,478.44c-3,15.69-3.34,32-2.69,48.17.15,3.66,1.49,7,2.6,10.48,9.29,28.61,17.36,57.6,27.71,85.88,2.69,7.34,2.78,15.38,2.21,23.5-.82,11.75-2.9,23.33-3.71,35-.59,8.42-5.14,15.46-7.5,23.25-5.7,18.85-15.21,35.88-26.33,52-18.22,26.38-18.84,54.13-7.61,83.19a271.29,271.29,0,0,0,16.8,35.12c.25,3.19-2.17,4.72-4.22,6.24-18.62,13.8-29.92,33.1-38.87,53.67-7.35,16.89-14.85,34-16.7,52.69-.81,8.24-3.63,16.5-.34,24.85A3.1,3.1,0,0,1,242.38,1015.78Z"
     id="path8" />
  <path
     class="cls-2"
     d="M944.79,933.31c.53,6.38,3.81,11.94,6.33,17.46,6.29,13.78,10,28.57,17,42,2.81,5.4,0,9.64-1.69,14.25-11.49,12.68-25.28,22.71-38.82,32.93A533.5,533.5,0,0,1,833,1097.2a524.5,524.5,0,0,1-89.86,32.55c-22.92,6-45.93,11.47-69.29,15.43-8,1.37-16.23.78-24.36,1.59-20.25,2-40.62,3.61-61,3.15a531,531,0,0,1-107.3-13.4c-52.06-12-101.34-31-148.25-56.26-27.93-15-53.67-33.47-78.4-53.31-4.28-3.43-9-6.39-12.09-11.17-5.22-22.16,1.4-42.64,9-63,2.5-6.72,5-13.47,7.92-20,10.07-22.58,23.69-42.52,43.84-57.44.34-2.38,2-3.79,3.8-5.05,19.72-14.17,38.62-29.41,59.49-42.06,21.8-13.22,43-27.43,65.36-39.75,15.81-8.72,32.41-15.81,49.06-22.77,1.94-.82,4-1.9,6.1-.15a3.14,3.14,0,0,1-.49,2.75c-8.18,8.93-4.09,18,.09,26.68,7.62,15.88,21.73,25.29,35.67,34.89,24.24,16.67,51.05,23.45,80.1,20.21,16.35-1.82,31.63-7.63,46.53-14.82,23.44-11.32,43.29-26.58,58.57-47.82,3-4.22,4.39-9.05,7-13.32,5.35-2.82,9.9.33,14.22,2.46,26.49,13.11,53.22,25.72,79.73,38.79,23.29,11.48,46.23,23.69,68.62,36.81,24.45,14.34,42.36,35.22,56.22,59.65C937.2,918.91,942.8,925.15,944.79,933.31Z"
     id="path10" />
  <path
     class="cls-3"
     d="M486.58,765.59c-13.16,5.06-25.86,11.18-38.75,16.86-20.51,9-39.34,21.06-58.05,32.89-23.19,14.66-47.17,28.4-68.18,46.4-5.8,5-12.31,9.09-18.5,13.6-5.87-4.38-8-11.27-10.77-17.43-8.28-18.13-16.36-36.59-15.11-57.1.86-14.17,3.63-28.23,12.32-40.06,16.41-22.34,26.76-47.62,35.78-73.5,2.41-6.92,2.48-14.73,3.06-21.87,1.34-16.43,3.93-33-3-49.53-11.3-27-17.44-55.8-27-83.44-2-5.67-1.43-11.51-1-17.16,1.1-14.09-.38-28.54,3.41-42.2,4-14.43,11.92-27.32,18.6-40.73,10.44-21,26.33-37.68,39.25-56.65a549,549,0,0,0,28.84-47.28c6.38-11.77,6.09-26,9.62-38.91,4.49-16.39,2-33.23,4.26-49.71a73.62,73.62,0,0,1,8.84-25.72c16.4-29.58,41-49.11,73.57-58.3,20.45-5.76,40.48-3.47,59.76,4.58,11.61,4.85,23.7,7.68,35.75,10.85a9.76,9.76,0,0,0,5.62-.46c21.58-8.44,44.25-12.53,67-15.82,24.32-3.52,49.1-4,69.34,12.56,15.36,12.54,29.41,26.94,37.84,45.74,10.07,22.47,27.93,38.16,47.27,52.3,14.13,10.32,29.41,19.3,41.82,31.67,16.3,16.23,32.56,32.64,35.33,57.64,2,18.34-2,35.74-5.76,53.27-3.29,15.44-11.32,28.74-19.36,42.17-10.46,17.46-15,37.14-19.19,56.93-3.36,15.87-1.4,32.15-4.4,47.87-3.38,17.73,2.15,34.25,5.31,51,3.58,19,16,33.29,28.16,47.76,15.21,18.16,30.62,36.34,36.58,60.31,4.86,19.56,1.59,38.65-3,57.48-3.21,13.09-1.36,24.67,5.48,35.83,5.4,8.82,11.17,17.59,18.52,24.71,11.69,11.32,17.76,25.51,23.41,40.09a168.54,168.54,0,0,1,5.59,17.12c3.46,12.77,0,24.59-6.14,35.67-1.5,2.72-1.64,6-3.86,8.29-5.33-5.92-8.76-13.11-12.68-19.9-15.43-26.71-35.4-48.68-62.8-63.64-26.77-14.61-53.66-29-81-42.39-20.48-10-41.36-19.26-61.58-29.87a25.37,25.37,0,0,0-11.7-3.32,3.14,3.14,0,0,1-2.78.19c-15.52-7-31.63-13-44.76-24.46a13.49,13.49,0,0,1-5-10.72q-.09-33.59,0-67.18c0-5,2.22-8.57,6-11.73,21-17.66,34.67-40.39,45.15-65.29,6.26-14.88,12-30,15.91-45.65a12,12,0,0,1,9.23-9.21c16-4,23.65-15.7,27.78-30.34,2.67-9.46,5.92-18.87,5.77-28.92-.16-11.54-6.21-15.55-16.79-11.2-4.56,1.88-6.31.64-6-5,.34-6.72,2.29-13.22,3-20a243.78,243.78,0,0,0-2.9-68.27c-3-16.9-7-33.42-15-48.8-3.56-6.88-3.54-7-10.82-4.1-6.26,2.51-12.09,5.95-18.5,8.15-23.27,8-44.36,3.12-63-11.85-9.32-7.48-18-16-24.11-26.65-2.75-4.79-6.89-8.65-10.28-13-11.91-15.33-38-11.92-49,2-5,6.28-5.7,13.68-4.53,21.25,2.88,18.71,3.46,37.36-.63,56-8.94,40.68-31.9,69.81-70.57,86.21-8.16,3.46-16.63.85-24.95,2.07-8,1.17-16.3.61-24.47-.65-11.22-1.73-12.51-.25-11.37,11.22.29,2.87,1.24,5.68.85,8.6-.18,1.43-.38,3.05-1.91,3.64s-2.55-.77-3.61-1.71c-8.57-7.53-15.84-5.33-17.4,6.15-3.18,23.31,2.59,44.49,20.66,60.09,11.21,9.69,19.1,20,22.88,34.57,4.14,15.92,13.74,29.62,22.75,43.28,13.3,20.15,28.49,38.8,46.33,55.17,2.6,2.38,4.6,5,4.52,8.66-.48,20.72,2.54,41.27,3.13,61.94.25,8.68-3.14,14.15-10.89,17.57-5.28,2.34-10.34,5.16-15.54,7.67C491.73,765.05,489.45,766.73,486.58,765.59Z"
     id="path12" />
  <path
     class="cls-4"
     d="M486.58,765.59c8-4,15.88-8.08,23.92-11.9,5.58-2.65,8.16-6.39,8.07-13-.29-21.61-3.93-43-3-64.69.1-2.45-1.12-3.82-2.83-5.39-27.37-25.12-48.74-54.78-66-87.53-2.82-5.35-5.26-10.93-6.21-16.84-1.89-11.71-8.68-19.84-17.59-26.89-22.23-17.59-28.16-41.14-24.26-68,.71-5,4.08-8.2,9-9.17,6.2-1.2,10.44,1.59,13,9.38,1.8-8.48-.86-14.66-.94-20.95-.08-5.29,1.47-6,5.9-6,8.89.06,17.64,1.64,26.57,1.61,19.4-.06,37.93-2.27,53.83-14.92,16.61-13.21,30.07-28.56,38.31-48.56,8.15-19.76,11-40.11,10.09-61.18a112.77,112.77,0,0,0-1.92-16.38c-4.19-21.68,8.91-33.31,27-36.67,14.4-2.67,25.78,3.28,34,15.27,9.52,13.88,19.39,27.5,33.38,37.33,21.72,15.26,44.48,16.24,68,4.35,3-1.51,6.66-2.08,9.13-4.15,7.36-6.15,9.1-.64,11.91,4.73,11,21,15,43.82,17.89,66.89,2.93,23.44,2.88,46.87-2.65,70.05-.48,2-.06,4.25-.06,7.16,4.41-2.52,7.72-6.32,12.78-5.05a14.72,14.72,0,0,1,8.57,6.27c3.38,5,2.44,11.05,1.38,16.09-2.34,11.19-4.46,22.51-9.35,33.11s-12.24,17.7-23.44,20.68c-5.87,1.56-8.82,4.7-10.55,11-8.4,30.2-19.44,59.35-38.13,84.95-6.79,9.29-14,18.33-23.55,25.09a10.17,10.17,0,0,0-4.66,9.11q.29,34.3,0,68.63c0,4.17,1.92,6.68,4.87,9,10.4,8.29,22,14.37,34.25,19.43,4,1.64,7.72,3.81,11.57,5.73,0,7-4.37,11.81-8.36,17-7.35,9.56-14.94,19.07-24.67,26.05-21.68,15.56-44.87,28.5-71.55,33.38C582,855.8,554.88,852,530,836.78c-14.68-9-29.6-17.78-40-32.28a58.4,58.4,0,0,1-10.56-27C478.67,771.48,484.6,769.77,486.58,765.59Z"
     id="path14" />
  <path
     class="cls-6"
     d="M660.28,668.37c-2.89,7.85-4,14.84-9.26,20.24-15.44,16-34.39,25.92-55.58,31.53-6.38,1.7-13.24,1-19.93-.68-20-5.05-37.25-14.82-51.39-29.91a20,20,0,0,1-2.69-3.36c-1.37-2.33-2.78-5.35-.94-7.4,2.34-2.6,4.21,1,5.91,2a203,203,0,0,0,49.71,22.27c12.76,3.71,25,1.84,37-3.69,13.82-6.39,26.68-14.14,37.55-24.93A29.15,29.15,0,0,1,660.28,668.37Z"
     id="path18" />
  <path
     class="cls-7"
     d="M622.25,616.48c-2,11.81-19,24.39-32.26,24.42-13.61,0-26.6-3.35-37.73-11.85-1.39-1.07-4.08-2.31-2.61-4.31s3.33.23,4.81,1.26c11.77,8.25,25.08,10.83,39,9.25,8.53-1,15.27-6.56,21.65-12.08C617.56,621,619.87,618.72,622.25,616.48Z"
     id="path20" />
</svg>
